<svg xmlns="http://www.w3.org/2000/svg" width="128px" height="128px" viewBox="-7.4264678955078125 -7.4264678955078125 142.35294342041016 142.35294342041016">
    <defs>
        <linearGradient id="Gradient" x1="-0.2" y1="-0.2" x2="1" y2="1">
            <stop stop-color="#47caff" offset="0%" />
            <stop stop-color="#bd34fe" offset="100%" />
        </linearGradient>
    </defs>
    <path
        fill="url(#Gradient)"
        transform="scale(8) translate(0, 0)"
        d="M 5.4 3 z m -1.3 -0.25 A 1.5 1.5 0 0 1 5.4 2 h 5.2 a 1.5 1.5 0 0 1 1.298 0.75 l 2.6 4.5 a 1.5 1.5 0 0 1 0 1.5 l -2.6 4.5 A 1.5 1.5 0 0 1 10.6 14 H 5.4 a 1.5 1.5 0 0 1 -1.298 -0.75 l -2.6 -4.5 a 1.5 1.5 0 0 1 0 -1.5 z" />
    <g transform="scale(0.594) translate(46, 42)">
        <path fill="#6ea517"
            d="M22.5 14.8c2.9 1.3 99 44 99 44c2.7 1.2 2.9 3.1 2 12.4c-1 10.5-1.9 37.8-40.2 42.9c-24.6 3.2-55.9-4.3-70.9-27.2C-6 58.8 11 23.4 14.8 17.7c2.4-3.5 4.8-4.2 7.7-2.9" />
        <path fill="#f0f4c3"
            d="M121.5 58.8c-.3-.2-92-40.8-98.9-43.9C9.6 31.5-3.8 76 27.9 96.2c33.6 21.5 78.7-10.2 93.6-37.4" />
        <path fill="#f0f4c3"
            d="M117.7 57c-.3-.2-86.7-38.4-93.2-41.3c-12.2 15.5-23.9 59.1 5.7 78c31.4 20.2 73.6-11.2 87.5-36.7" />
        <path fill="#b0e244"
            d="M56.2 37.6L19.5 48.2c-2.5.8-4.4 2.8-5 5.3c-1.9 8.5.8 23.3 8.9 29.8c3.5 2.7 8.6 1.8 10.8-2.1L58.5 41c1.3-1.7.5-4.2-2.3-3.4m14.3 2.9s14.6 30.1 16 33s6.3 4.7 9.9 2.8c10.7-5.6 15.5-12.4 19.2-20.2c-8.9-3.9-42.4-18.8-42.4-18.8c-2.4-1.1-4 .6-2.7 3.2m-8.6 1.9C60.3 45.1 39.5 81 37.6 84.1c-1.9 3.2-.7 7.5 2.7 9.2c12.3 6.5 30.9.4 39.6-7c2.2-1.9 4.5-5.1 3.2-8.2S68.9 44.6 67.8 42.3c-1.2-2.7-4.1-2.8-5.9.1" />
        <path fill="#b0e244"
            d="M57.6 30.3c-8.3-3.7-24.4-10.7-29.6-13c-3.6 2.2-9.7 11.4-11.2 21.2c-.6 3.6 1.7 5.9 5.3 4.9c0 0 33.7-9.3 35.3-9.7c1.6-.5 2-2.6.2-3.4" />
    </g>
    <path fill="#b0e244"
        transform="scale(8.5) translate(-0.5, -0.5)"
        d="M5.4 3a.5.5 0 0 0-.434.25l-2.6 4.5a.5.5 0 0 0 0 .5l2.6 4.5A.5.5 0 0 0 5.4 13h5.2a.5.5 0 0 0 .433-.25l2.6-4.5a.5.5 0 0 0 0-.5l-2.6-4.5A.5.5 0 0 0 10.6 3zm-1.3-.25A1.5 1.5 0 0 1 5.4 2h5.2a1.5 1.5 0 0 1 1.298.75l2.6 4.5a1.5 1.5 0 0 1 0 1.5l-2.6 4.5A1.5 1.5 0 0 1 10.6 14H5.4a1.5 1.5 0 0 1-1.298-.75l-2.6-4.5a1.5 1.5 0 0 1 0-1.5z" />

</svg>